<svg width="25" height="14" viewBox="0 0 25 14" fill="none" xmlns="http://www.w3.org/2000/svg">
<path fill-rule="evenodd" clip-rule="evenodd" d="M0.282455 0.293712C0.371763 0.200609 0.477858 0.126742 0.594662 0.0763422C0.711465 0.0259421 0.836684 0 0.963144 0C1.08961 0 1.21482 0.0259421 1.33163 0.0763422C1.44843 0.126742 1.55453 0.200609 1.64383 0.293712L12.5003 11.5848L23.3567 0.293712C23.4461 0.20076 23.5522 0.127026 23.669 0.0767207C23.7858 0.0264153 23.9109 0.000523434 24.0374 0.000523434C24.1638 0.000523434 24.289 0.0264153 24.4057 0.0767207C24.5225 0.127026 24.6287 0.20076 24.7181 0.293712C24.8074 0.386664 24.8783 0.497014 24.9267 0.618462C24.9751 0.73991 25 0.870077 25 1.00153C25 1.13299 24.9751 1.26315 24.9267 1.3846C24.8783 1.50605 24.8074 1.6164 24.7181 1.70935L13.1809 13.7063C13.0916 13.7994 12.9855 13.8733 12.8687 13.9237C12.7519 13.9741 12.6267 14 12.5003 14C12.3738 14 12.2486 13.9741 12.1318 13.9237C12.015 13.8733 11.9089 13.7994 11.8196 13.7063L0.282455 1.70935C0.192921 1.61648 0.121885 1.50616 0.073417 1.3847C0.0249487 1.26324 0 1.13303 0 1.00153C0 0.870031 0.0249487 0.739821 0.073417 0.618362C0.121885 0.496903 0.192921 0.38658 0.282455 0.293712Z" fill="#2D2D2D"/>
</svg>
